HIERARCHY
ROOT Hips
{
	OFFSET 0.637730 -0.097205 -0.630555
	CHANNELS 6 Xposition Yposition Zposition Zrotation Yrotation Xrotation 
	JOINT Spine
	{
		OFFSET -0.000031 8.340403 -2.713993
		CHANNELS 3 Zrotation Yrotation Xrotation
		JOINT Spine1
		{
			OFFSET -0.000002 11.910021 -2.100108
			CHANNELS 3 Zrotation Yrotation Xrotation
			JOINT Spine2
			{
				OFFSET 0.000013 12.047684 -1.054077
				CHANNELS 3 Zrotation Yrotation Xrotation
				JOINT Spine3
				{
					OFFSET 0.000017 12.093716 0.000038
					CHANNELS 3 Zrotation Yrotation Xrotation
					JOINT Neck
					{
						OFFSET -0.000032 15.549073 1.554918
						CHANNELS 3 Zrotation Yrotation Xrotation
						JOINT Neck1
						{
							OFFSET 0.000021 4.687327 0.410064
							CHANNELS 3 Zrotation Yrotation Xrotation
							JOINT Head
							{
								OFFSET 0.000039 4.633812 0.817098
								CHANNELS 3 Zrotation Yrotation Xrotation
								JOINT HeadEnd
								{
									OFFSET 0.000010 9.727772 -0.000012
									CHANNELS 3 Zrotation Yrotation Xrotation
									End Site
									{
										OFFSET 0.000000 0.000000 0.000000
									}
								}
							}
						}
					}
					JOINT RightShoulder
					{
						OFFSET 0.000032 11.106508 6.072606
						CHANNELS 3 Zrotation Yrotation Xrotation
						JOINT RightArm
						{
							OFFSET -19.427927 0.000072 0.000017
							CHANNELS 3 Zrotation Yrotation Xrotation
							JOINT RightForeArm
							{
								OFFSET -29.350727 -0.000008 0.000025
								CHANNELS 3 Zrotation Yrotation Xrotation
								JOINT RightHand
								{
									OFFSET -27.018080 -0.000022 0.000055
									CHANNELS 3 Zrotation Yrotation Xrotation
									JOINT RightHandMiddle1
									{
										OFFSET -9.244012 -0.000011 0.000002
										CHANNELS 3 Zrotation Yrotation Xrotation
										JOINT RightHandMiddle2
										{
											OFFSET -4.870065 -0.000023 -0.000006
											CHANNELS 3 Zrotation Yrotation Xrotation
											JOINT RightHandMiddle3
											{
												OFFSET -3.169075 0.000010 0.000007
												CHANNELS 3 Zrotation Yrotation Xrotation
												JOINT RightHandMiddle4
												{
													OFFSET -1.888341 0.000002 -0.000005
													CHANNELS 3 Zrotation Yrotation Xrotation
													End Site
													{
														OFFSET 0.000000 0.000000 0.000000
													}
												}
											}
										}
									}
									JOINT RightHandRing
									{
										OFFSET -0.250007 -0.250019 -0.956457
										CHANNELS 3 Zrotation Yrotation Xrotation
										JOINT RightHandRing1
										{
											OFFSET -8.140213 0.000031 -0.734586
											CHANNELS 3 Zrotation Yrotation Xrotation
											JOINT RightHandRing2
											{
												OFFSET -4.501565 -0.000019 -0.406242
												CHANNELS 3 Zrotation Yrotation Xrotation
												JOINT RightHandRing3
												{
													OFFSET -3.068849 0.000006 -0.276948
													CHANNELS 3 Zrotation Yrotation Xrotation
													JOINT RightHandRing4
													{
														OFFSET -1.869940 -0.000016 -0.168765
														CHANNELS 3 Zrotation Yrotation Xrotation
														End Site
														{
															OFFSET 0.000000 0.000000 0.000000
														}
													}
												}
											}
										}
										JOINT RightHandPinky
										{
											OFFSET -0.163074 -0.249981 -0.975119
											CHANNELS 3 Zrotation Yrotation Xrotation
											JOINT RightHandPinky1
											{
												OFFSET -6.681453 -0.000011 -1.494106
												CHANNELS 3 Zrotation Yrotation Xrotation
												JOINT RightHandPinky2
												{
													OFFSET -3.580956 -0.000004 -0.800786
													CHANNELS 3 Zrotation Yrotation Xrotation
													JOINT RightHandPinky3
													{
														OFFSET -2.276529 -0.000022 -0.509055
														CHANNELS 3 Zrotation Yrotation Xrotation
														JOINT RightHandPinky4
														{
															OFFSET -1.690356 -0.000013 -0.377976
															CHANNELS 3 Zrotation Yrotation Xrotation
															End Site
															{
																OFFSET 0.000000 0.000000 0.000000
															}
														}
													}
												}
											}
										}
									}
									JOINT RightHandIndex
									{
										OFFSET -0.249989 -0.250010 0.956494
										CHANNELS 3 Zrotation Yrotation Xrotation
										JOINT RightHandIndex1
										{
											OFFSET -8.934074 0.000033 0.806257
											CHANNELS 3 Zrotation Yrotation Xrotation
											JOINT RightHandIndex2
											{
												OFFSET -4.694676 -0.000018 0.423680
												CHANNELS 3 Zrotation Yrotation Xrotation
												JOINT RightHandIndex3
												{
													OFFSET -2.811735 0.000017 0.253714
													CHANNELS 3 Zrotation Yrotation Xrotation
													JOINT RightHandIndex4
													{
														OFFSET -1.709906 -0.000016 0.154273
														CHANNELS 3 Zrotation Yrotation Xrotation
														End Site
														{
															OFFSET 0.000000 0.000000 0.000000
														}
													}
												}
											}
										}
										JOINT RightHandThumb1
										{
											OFFSET -0.162995 -0.750004 0.975093
											CHANNELS 3 Zrotation Yrotation Xrotation
											JOINT RightHandThumb2
											{
												OFFSET -5.411695 0.835525 2.244688
												CHANNELS 3 Zrotation Yrotation Xrotation
												JOINT RightHandThumb3
												{
													OFFSET -3.567152 0.550735 1.479629
													CHANNELS 3 Zrotation Yrotation Xrotation
													JOINT RightHandThumb4
													{
														OFFSET -2.150541 0.332037 0.892052
														CHANNELS 3 Zrotation Yrotation Xrotation
														End Site
														{
															OFFSET 0.000000 0.000000 0.000000
														}
													}
												}
											}
										}
									}
								}
							}
						}
					}
					JOINT LeftShoulder
					{
						OFFSET 0.000035 11.106476 6.072644
						CHANNELS 3 Zrotation Yrotation Xrotation
						JOINT LeftArm
						{
							OFFSET 19.427888 -0.000001 -0.000011
							CHANNELS 3 Zrotation Yrotation Xrotation
							JOINT LeftForeArm
							{
								OFFSET 29.350728 0.000005 0.000047
								CHANNELS 3 Zrotation Yrotation Xrotation
								JOINT LeftHand
								{
									OFFSET 27.018081 -0.000042 -0.000015
									CHANNELS 3 Zrotation Yrotation Xrotation
									JOINT LeftHandMiddle1
									{
										OFFSET 9.402648 0.000031 -0.000019
										CHANNELS 3 Zrotation Yrotation Xrotation
										JOINT LeftHandMiddle2
										{
											OFFSET 4.950121 -0.000005 -0.000011
											CHANNELS 3 Zrotation Yrotation Xrotation
											JOINT LeftHandMiddle3
											{
												OFFSET 3.211958 0.000001 -0.000018
												CHANNELS 3 Zrotation Yrotation Xrotation
												JOINT LeftHandMiddle4
												{
													OFFSET 1.927629 0.000013 0.000001
													CHANNELS 3 Zrotation Yrotation Xrotation
													End Site
													{
														OFFSET 0.000000 0.000000 0.000000
													}
												}
											}
										}
									}
									JOINT LeftHandRing
									{
										OFFSET 0.249973 -0.250020 -0.906136
										CHANNELS 3 Zrotation Yrotation Xrotation
										JOINT LeftHandRing1
										{
											OFFSET 8.286066 -0.000019 -0.747800
											CHANNELS 3 Zrotation Yrotation Xrotation
											JOINT LeftHandRing2
											{
												OFFSET 4.585526 0.000022 -0.413795
												CHANNELS 3 Zrotation Yrotation Xrotation
												JOINT LeftHandRing3
												{
													OFFSET 3.124465 0.000006 -0.281959
													CHANNELS 3 Zrotation Yrotation Xrotation
													JOINT LeftHandRing4
													{
														OFFSET 1.908772 -0.000005 -0.172253
														CHANNELS 3 Zrotation Yrotation Xrotation
														End Site
														{
															OFFSET 0.000000 0.000000 0.000000
														}
													}
												}
											}
										}
										JOINT LeftHandPinky
										{
											OFFSET 0.167545 -0.249986 -0.924959
											CHANNELS 3 Zrotation Yrotation Xrotation
											JOINT LeftHandPinky1
											{
												OFFSET 6.823478 0.000008 -1.525913
												CHANNELS 3 Zrotation Yrotation Xrotation
												JOINT LeftHandPinky2
												{
													OFFSET 3.642804 -0.000014 -0.814587
													CHANNELS 3 Zrotation Yrotation Xrotation
													JOINT LeftHandPinky3
													{
														OFFSET 2.333129 0.000006 -0.521724
														CHANNELS 3 Zrotation Yrotation Xrotation
														JOINT LeftHandPinky4
														{
															OFFSET 1.725451 0.000005 -0.385874
															CHANNELS 3 Zrotation Yrotation Xrotation
															End Site
															{
																OFFSET 0.000000 0.000000 0.000000
															}
														}
													}
												}
											}
										}
									}
									JOINT LeftHandIndex
									{
										OFFSET 0.250014 -0.250000 0.906143
										CHANNELS 3 Zrotation Yrotation Xrotation
										JOINT LeftHandIndex1
										{
											OFFSET 9.087968 -0.000022 0.820148
											CHANNELS 3 Zrotation Yrotation Xrotation
											JOINT LeftHandIndex2
											{
												OFFSET 4.776526 -0.000021 0.431046
												CHANNELS 3 Zrotation Yrotation Xrotation
												JOINT LeftHandIndex3
												{
													OFFSET 2.865144 0.000017 0.258589
													CHANNELS 3 Zrotation Yrotation Xrotation
													JOINT LeftHandIndex4
													{
														OFFSET 1.745460 -0.000002 0.157484
														CHANNELS 3 Zrotation Yrotation Xrotation
														End Site
														{
															OFFSET 0.000000 0.000000 0.000000
														}
													}
												}
											}
										}
										JOINT LeftHandThumb1
										{
											OFFSET 0.167569 -0.749991 0.924965
											CHANNELS 3 Zrotation Yrotation Xrotation
											JOINT LeftHandThumb2
											{
												OFFSET 5.551496 0.857118 2.302694
												CHANNELS 3 Zrotation Yrotation Xrotation
												JOINT LeftHandThumb3
												{
													OFFSET 3.625646 0.559729 1.503902
													CHANNELS 3 Zrotation Yrotation Xrotation
													JOINT LeftHandThumb4
													{
														OFFSET 2.195244 0.338911 0.910544
														CHANNELS 3 Zrotation Yrotation Xrotation
														End Site
														{
															OFFSET 0.000000 0.000000 0.000000
														}
													}
												}
											}
										}
									}
								}
							}
						}
					}
				}
			}
		}
	}
	JOINT RightUpLeg
	{
		OFFSET -8.786541 0.000013 -0.000007
		CHANNELS 3 Zrotation Yrotation Xrotation
		JOINT RightLeg
		{
			OFFSET -0.000080 -42.170404 -0.000075
			CHANNELS 3 Zrotation Yrotation Xrotation
			JOINT RightFoot
			{
				OFFSET 0.000015 -45.949150 0.000035
				CHANNELS 3 Zrotation Yrotation Xrotation
				JOINT RightForeFoot
				{
					OFFSET 0.000005 -4.685841 -0.000023
					CHANNELS 3 Zrotation Yrotation Xrotation
					JOINT RightToeBase
					{
						OFFSET -0.000042 0.000002 18.351141
						CHANNELS 3 Zrotation Yrotation Xrotation
						JOINT RightToeBaseEnd
						{
							OFFSET 0.000044 0.000038 6.416941
							CHANNELS 3 Zrotation Yrotation Xrotation
							End Site
							{
								OFFSET 0.000000 0.000000 0.000000
							}
						}
					}
				}
			}
		}
	}
	JOINT LeftUpLeg
	{
		OFFSET 8.786536 -0.000049 -0.000053
		CHANNELS 3 Zrotation Yrotation Xrotation
		JOINT LeftLeg
		{
			OFFSET 0.000015 -42.170452 0.000013
			CHANNELS 3 Zrotation Yrotation Xrotation
			JOINT LeftFoot
			{
				OFFSET -0.000002 -45.949169 0.000028
				CHANNELS 3 Zrotation Yrotation Xrotation
				JOINT LeftForeFoot
				{
					OFFSET 0.000049 -4.685817 0.000067
					CHANNELS 3 Zrotation Yrotation Xrotation
					JOINT LeftToeBase
					{
						OFFSET 0.000031 -0.000046 18.351047
						CHANNELS 3 Zrotation Yrotation Xrotation
						JOINT LeftToeBaseEnd
						{
							OFFSET -0.000007 0.000013 7.522023
							CHANNELS 3 Zrotation Yrotation Xrotation
							End Site
							{
								OFFSET 0.000000 0.000000 0.000000
							}
						}
					}
				}
			}
		}
	}
}
MOTION
Frames: 5
Frame Time: 0.066667
2.283230 -0.373484 2.234115 -6.331437 14.203160 0.990237 8.925497 -1.250956 -0.431594 -0.037214 -0.166802 -2.928620 0.095117 0.156248 -1.345668 1.878420 0.713451 8.176478 4.662012 0.882714 7.166562 -8.743799 5.947459 0.732056 -5.438656 1.328083 2.001938 -0.000736 0.000360 -0.001276 5.150342 -11.960076 -1.100138 72.242485 23.610899 1.479611 179.999435 69.632965 167.099899 -35.613419 1.793715 -0.003593 23.517115 -8.804541 -0.002300 26.839710 -0.000697 0.000972 12.271301 -0.001738 0.002631 -0.000519 -0.000300 0.000942 -1.322734 -1.357604 -4.926397 22.717283 -7.134573 -1.988679 41.238670 1.287561 -3.412216 10.780685 0.093891 -0.966693 0.001561 0.002876 0.000209 -1.523972 -3.477813 -5.525350 12.821469 -2.672266 -2.825976 41.187737 3.217618 -8.468831 31.750416 1.913914 -6.756170 -0.000428 -0.002987 0.000210 0.633621 6.771808 0.493350 22.216736 -10.483928 2.023348 17.918341 -0.264579 1.592434 11.573668 -0.106269 1.037122 0.000023 -0.000110 -0.000038 11.908094 -7.156315 51.451748 -0.895894 3.068724 0.130236 -4.234358 2.534614 -1.499883 -0.000090 -0.000447 -0.000113 -8.350475 6.721343 -0.985456 -66.737976 -19.894821 -3.509548 -179.998322 -67.840118 169.792191 15.867336 12.618903 0.017267 -26.511890 4.177908 0.001501 -48.408936 0.003397 0.000006 -23.399773 0.002145 -0.000600 0.001740 0.000366 -0.000934 -0.527808 1.529229 -10.660367 -22.439528 3.796542 -1.963306 -53.755226 -2.122525 -4.173277 -13.312963 -0.139104 -1.188884 -0.000386 -0.000124 0.001892 -0.256397 1.272075 -5.471449 -8.489408 6.883303 -1.863262 -41.622459 -3.256216 -8.545638 -28.761902 -1.578946 -6.173056 -0.000185 -0.003234 -0.001300 -0.177944 -6.636122 -4.133339 -26.160206 13.432341 2.401107 -38.229050 1.093596 3.199764 -18.671883 0.275900 1.656592 -0.002349 0.000073 -0.001287 -13.275251 6.990063 51.679878 -2.311480 6.319563 0.046074 0.000000 0.000000 0.000000 0.000832 0.001116 -0.001030 4.419890 -7.059722 2.840696 0.000526 -0.000963 4.661600 0.000000 0.000000 -0.000000 -0.000000 -0.000000 0.000000 0.000000 0.000000 0.000000 0.000000 0.000000 0.000000 12.944162 -6.973102 1.232348 -0.002174 0.001837 2.831913 -0.000000 -0.000000 -0.000000 0.000000 0.000000 -0.000000 -0.000000 0.000000 0.000000 0.000000 0.000000 0.000000 
2.308514 -0.356357 2.269419 -6.295292 14.215051 1.092522 8.903078 -1.238717 -0.364518 -0.032942 -0.164239 -2.921272 0.083584 0.189086 -1.319753 1.847107 0.716018 8.241102 4.600636 0.984687 7.195886 -8.731816 6.053646 0.727306 -5.457896 1.338929 2.017275 -0.000893 0.000471 -0.001232 5.086784 -11.978966 -1.091797 72.317444 23.714056 1.406657 179.999390 69.802422 166.984192 -35.787537 1.626513 -0.003612 23.894045 -8.764941 -0.002256 27.382212 -0.000558 0.000934 12.333384 -0.001844 0.002540 -0.000477 -0.000266 0.000941 -1.301380 -1.356461 -4.817631 22.750603 -7.022090 -1.991709 41.933929 1.324587 -3.458874 10.679268 0.091927 -0.957552 0.001510 0.002858 0.000409 -1.496711 -3.402340 -5.524255 12.620262 -2.732224 -2.781139 41.269527 3.231097 -8.482881 32.095818 1.952008 -6.822296 -0.000245 -0.003048 0.000119 0.720419 6.773292 0.456527 22.785458 -10.695456 2.071033 18.427439 -0.278580 1.636924 11.414868 -0.101999 1.023192 0.000204 0.000023 -0.000273 12.159904 -8.025807 51.786640 -1.366281 3.484782 0.009295 -5.194228 3.136616 -1.805391 -0.000052 -0.000501 -0.000220 -8.315290 6.738757 -0.985120 -66.982811 -20.070568 -3.503147 -179.997894 -67.901253 169.294296 16.207844 12.777624 0.015545 -26.294672 4.226961 0.001524 -48.001240 0.003373 0.000425 -23.120131 0.002088 -0.000645 0.001855 0.000454 -0.000925 -0.535257 1.519480 -10.634828 -22.278131 3.776935 -1.949969 -53.354568 -2.093235 -4.151327 -13.112845 -0.135224 -1.171357 -0.000354 -0.000260 0.001882 -0.281213 1.220248 -5.534386 -8.391341 7.038095 -1.842027 -41.315697 -3.207712 -8.493629 -28.588305 -1.561113 -6.138602 0.000018 -0.003212 -0.001324 -0.169040 -6.609987 -4.094319 -26.081099 13.343555 2.392686 -37.834690 1.072403 3.171894 -18.408625 0.268379 1.633741 -0.002032 0.000165 -0.001475 -13.234115 7.020737 51.647423 -2.369122 6.289929 0.072857 0.000000 0.000000 0.000000 0.000980 0.000964 -0.001109 4.291441 -7.076957 2.750057 0.000762 -0.000809 4.656456 0.000000 0.000000 -0.000000 -0.000000 -0.000000 0.000000 0.000000 0.000000 0.000000 0.000000 0.000000 0.000000 12.814788 -7.064146 1.213501 -0.002222 0.002034 2.838557 -0.000000 -0.000000 -0.000000 0.000000 0.000000 -0.000000 -0.000000 0.000000 0.000000 0.000000 0.000000 0.000000 
2.327661 -0.345693 2.268872 -6.272963 14.175761 1.150254 8.902864 -1.225620 -0.243987 -0.030615 -0.162627 -2.906901 0.077582 0.215658 -1.303061 1.828364 0.719716 8.289644 4.540181 1.060372 7.177892 -8.719949 6.127083 0.686623 -5.474819 1.347121 2.011466 -0.000875 0.000558 -0.001067 5.061050 -12.005396 -1.088108 72.336624 23.643440 1.402949 179.999161 69.934532 166.761139 -35.892281 1.393499 -0.003393 24.180716 -8.738172 -0.002000 27.802162 -0.000425 0.000976 12.387727 -0.001933 0.002460 -0.000317 -0.000195 0.000978 -1.294232 -1.373526 -4.737381 22.845285 -6.934364 -1.999997 42.555336 1.358718 -3.499930 10.633247 0.090722 -0.953220 0.001385 0.002856 0.000577 -1.488865 -3.381763 -5.476334 12.480497 -2.749655 -2.750401 41.402325 3.254225 -8.506032 32.322495 1.977923 -6.865506 -0.000001 -0.003009 -0.000044 0.793471 6.795485 0.420712 23.219564 -10.872661 2.107572 18.920080 -0.292696 1.679986 11.371457 -0.100250 1.019437 0.000456 0.000194 -0.000476 12.345490 -8.588325 52.048111 -1.658429 3.815191 -0.056762 -5.778035 3.507178 -1.985252 -0.000125 -0.000521 -0.000436 -8.279612 6.769618 -0.986005 -67.155869 -20.105137 -3.408518 -179.997803 -67.952606 168.970261 16.337626 12.988477 0.016055 -25.945528 4.315041 0.001561 -47.674187 0.003194 0.000952 -22.849863 0.001846 -0.000765 0.001762 0.000584 -0.000708 -0.534012 1.519894 -10.584379 -22.013756 3.770774 -1.928338 -53.019234 -2.068359 -4.132866 -12.934622 -0.131756 -1.155929 -0.000210 -0.000331 0.001786 -0.301890 1.190117 -5.590101 -8.195456 7.191920 -1.799436 -41.096695 -3.171445 -8.456050 -28.434818 -1.545633 -6.108518 0.000223 -0.003134 -0.001276 -0.167200 -6.590047 -4.037545 -25.881863 13.260692 2.373673 -37.461647 1.052617 3.145732 -18.182558 0.262076 1.614122 -0.001689 0.000260 -0.001570 -13.215563 7.010307 51.596748 -2.431109 6.261159 0.100561 0.000000 0.000000 0.000000 0.001186 0.000808 -0.001061 4.252848 -7.108369 2.689948 0.000796 -0.000498 4.606497 0.000000 0.000000 -0.000000 -0.000000 -0.000000 0.000000 0.000000 0.000000 0.000000 0.000000 0.000000 0.000000 12.789762 -7.028745 1.143420 -0.002170 0.002122 2.874108 -0.000000 -0.000000 -0.000000 0.000000 0.000000 -0.000000 -0.000000 0.000000 0.000000 0.000000 0.000000 0.000000 
2.335643 -0.341123 2.294360 -6.271487 14.086250 1.138364 8.925152 -1.211862 -0.064340 -0.031610 -0.162285 -2.886098 0.075740 0.227716 -1.295776 1.818625 0.721684 8.335896 4.487765 1.111163 7.114606 -8.710548 6.165070 0.601426 -5.486022 1.351914 1.975511 -0.000665 0.000715 -0.000815 5.076761 -12.034772 -1.090307 72.234024 23.365705 1.477700 179.999161 70.116325 166.573868 -35.899590 1.174100 -0.002717 24.336353 -8.714420 -0.001626 28.210423 -0.000383 0.001138 12.563211 -0.002037 0.002461 -0.000086 -0.000035 0.001048 -1.296916 -1.394245 -4.701582 22.925518 -6.857308 -2.006968 43.152443 1.392307 -3.538908 10.744844 0.092092 -0.962774 0.001133 0.002877 0.000727 -1.499373 -3.398490 -5.411635 12.337093 -2.734965 -2.719560 41.703136 3.302140 -8.557585 32.513260 2.000334 -6.901803 0.000133 -0.002842 -0.000253 0.839861 6.827355 0.370534 23.502028 -11.011718 2.132058 19.455544 -0.308569 1.726466 11.543676 -0.103019 1.034721 0.000716 0.000453 -0.000533 12.433097 -8.827160 52.198139 -1.798220 3.996734 -0.088492 -5.913615 3.600760 -2.018723 -0.000265 -0.000549 -0.000660 -8.251429 6.815904 -0.989193 -67.220474 -19.952915 -3.130163 -179.998062 -68.011513 169.087631 16.277859 13.216183 0.017637 -25.454382 4.474986 0.001752 -47.479721 0.002885 0.001507 -22.592010 0.001391 -0.000914 0.001464 0.000788 -0.000389 -0.517440 1.525981 -10.484327 -21.632101 3.809780 -1.897044 -52.809307 -2.053090 -4.121175 -12.778430 -0.128840 -1.142576 0.000048 -0.000354 0.001625 -0.319691 1.174539 -5.629951 -7.913107 7.333811 -1.738233 -40.974819 -3.149969 -8.434808 -28.353455 -1.537505 -6.093290 0.000369 -0.003152 -0.001230 -0.179150 -6.567556 -3.927632 -25.553085 13.190835 2.343985 -37.157841 1.037774 3.124703 -18.002188 0.256853 1.598475 -0.001437 0.000302 -0.001577 -13.241042 7.009230 51.543888 -2.496567 6.182391 0.134453 0.000000 0.000000 0.000000 0.001399 0.000765 -0.000867 4.314100 -7.074150 2.671213 0.000650 0.000024 4.521111 0.000000 0.000000 -0.000000 0.000000 -0.000000 0.000000 0.000000 -0.000000 0.000000 0.000000 0.000000 0.000000 12.877003 -6.867850 1.050370 -0.002061 0.002100 2.945788 -0.000000 -0.000000 -0.000000 0.000000 0.000000 -0.000000 -0.000000 0.000000 0.000000 0.000000 0.000000 0.000000 
2.384985 -0.334093 2.305159 -6.270813 13.980011 1.157703 8.943957 -1.201344 0.097709 -0.031034 -0.162323 -2.867959 0.075402 0.224596 -1.289236 1.811846 0.720611 8.381732 4.428861 1.172313 7.043257 -8.697415 6.227175 0.483932 -5.492699 1.356949 1.926687 -0.000489 0.000784 -0.000547 5.094251 -12.072167 -1.093881 72.110443 23.081482 1.526496 179.999405 70.318596 166.318054 -35.866009 0.921965 -0.001762 24.435270 -8.720510 -0.001073 28.581377 -0.000392 0.001242 12.746592 -0.002011 0.002500 0.000064 0.000152 0.001083 -1.324179 -1.427284 -4.643964 23.133705 -6.794562 -2.024424 43.588711 1.421351 -3.567193 10.926991 0.094657 -0.978510 0.001000 0.002805 0.000734 -1.520945 -3.479061 -5.319358 12.271606 -2.601225 -2.707515 42.058929 3.361431 -8.618059 32.593533 2.011946 -6.916975 0.000178 -0.002714 -0.000384 0.866144 6.867753 0.347831 23.678616 -11.140451 2.149385 20.089653 -0.329734 1.780850 11.976889 -0.111802 1.072925 0.000870 0.000694 -0.000518 12.406651 -8.658044 52.265182 -1.633085 3.962244 -0.031208 -5.462456 3.328379 -1.866164 -0.000439 -0.000650 -0.000868 -8.218918 6.856583 -0.991818 -67.245186 -19.815788 -2.746746 -179.998566 -68.071342 169.218994 16.246574 13.406770 0.017454 -24.867048 4.652394 0.002053 -47.560265 0.002495 0.001896 -22.499121 0.001002 -0.001034 0.001132 0.000967 -0.000070 -0.489821 1.545556 -10.380440 -21.095072 3.877401 -1.852591 -52.983177 -2.066575 -4.130788 -12.747002 -0.128504 -1.140235 0.000303 -0.000295 0.001406 -0.323828 1.194864 -5.644857 -7.510818 7.462954 -1.650724 -41.128365 -3.171489 -8.460393 -28.413383 -1.544551 -6.106016 0.000443 -0.003121 -0.001116 -0.209565 -6.559515 -3.805031 -25.222076 13.164361 2.315506 -37.188766 1.042001 3.127524 -18.027166 0.257678 1.600626 -0.001255 0.000192 -0.001549 -13.350823 7.060266 51.516068 -2.605528 6.082442 0.187590 0.000000 0.000000 0.000000 0.001527 0.000785 -0.000720 4.365146 -7.055336 2.613219 0.000413 0.000622 4.452933 0.000000 0.000000 -0.000000 0.000000 -0.000000 0.000000 0.000000 -0.000000 0.000000 0.000000 0.000000 0.000000 12.936838 -6.722077 0.983471 -0.001985 0.002001 2.996653 -0.000000 -0.000000 -0.000000 0.000000 0.000000 -0.000000 -0.000000 0.000000 0.000000 0.000000 0.000000 0.000000 
